<svg xmlns="http://www.w3.org/2000/svg" viewBox="0 0 220 350" width="220" height="350">
<rect x="26" y="330" width="26" height="16" rx="6" fill="#e3ab86" stroke="#b0688a" stroke-width="3" stroke-linejoin="round" stroke-linecap="round"/>
<rect x="168" y="330" width="26" height="16" rx="6" fill="#e3ab86" stroke="#b0688a" stroke-width="3" stroke-linejoin="round" stroke-linecap="round"/>
<rect x="10" y="10" width="200" height="324" rx="14" fill="#f3cdb3" stroke="#b0688a" stroke-width="4" stroke-linejoin="round" stroke-linecap="round"/>
<rect x="26" y="26" width="168" height="292" rx="6" fill="#e6b294"/>
<rect x="30" y="44" width="16" height="68" rx="3" fill="#bfe1ff" stroke="#b0688a" stroke-width="3" stroke-linejoin="round" stroke-linecap="round"/><line x1="34" y1="56" x2="42" y2="56" stroke="#fff" stroke-width="3" opacity="0.8"/><rect x="48" y="50" width="20" height="62" rx="3" fill="#ff9cc8" stroke="#b0688a" stroke-width="3" stroke-linejoin="round" stroke-linecap="round"/><line x1="52" y1="62" x2="64" y2="62" stroke="#fff" stroke-width="3" opacity="0.8"/><rect x="70" y="44" width="20" height="68" rx="3" fill="#ff9cc8" stroke="#b0688a" stroke-width="3" stroke-linejoin="round" stroke-linecap="round"/><line x1="74" y1="56" x2="86" y2="56" stroke="#fff" stroke-width="3" opacity="0.8"/><rect x="92" y="44" width="16" height="68" rx="3" fill="#bfe8d6" stroke="#b0688a" stroke-width="3" stroke-linejoin="round" stroke-linecap="round"/><line x1="96" y1="56" x2="104" y2="56" stroke="#fff" stroke-width="3" opacity="0.8"/><rect x="110" y="44" width="14" height="68" rx="3" fill="#ff9cc8" stroke="#b0688a" stroke-width="3" stroke-linejoin="round" stroke-linecap="round"/><line x1="114" y1="56" x2="120" y2="56" stroke="#fff" stroke-width="3" opacity="0.8"/><rect x="126" y="44" width="18" height="68" rx="3" fill="#cbb8f2" stroke="#b0688a" stroke-width="3" stroke-linejoin="round" stroke-linecap="round"/><line x1="130" y1="56" x2="140" y2="56" stroke="#fff" stroke-width="3" opacity="0.8"/><rect x="146" y="48" width="18" height="64" rx="3" fill="#ffd76e" stroke="#b0688a" stroke-width="3" stroke-linejoin="round" stroke-linecap="round" transform="rotate(-14 164 112)"/><rect x="30" y="142" width="16" height="62" rx="3" fill="#cbb8f2" stroke="#b0688a" stroke-width="3" stroke-linejoin="round" stroke-linecap="round"/><line x1="34" y1="154" x2="42" y2="154" stroke="#fff" stroke-width="3" opacity="0.8"/><rect x="48" y="136" width="14" height="68" rx="3" fill="#cbb8f2" stroke="#b0688a" stroke-width="3" stroke-linejoin="round" stroke-linecap="round"/><line x1="52" y1="148" x2="58" y2="148" stroke="#fff" stroke-width="3" opacity="0.8"/><rect x="64" y="142" width="18" height="62" rx="3" fill="#ffd76e" stroke="#b0688a" stroke-width="3" stroke-linejoin="round" stroke-linecap="round"/><line x1="68" y1="154" x2="78" y2="154" stroke="#fff" stroke-width="3" opacity="0.8"/><rect x="84" y="132" width="18" height="72" rx="3" fill="#bfe8d6" stroke="#b0688a" stroke-width="3" stroke-linejoin="round" stroke-linecap="round"/><line x1="88" y1="144" x2="98" y2="144" stroke="#fff" stroke-width="3" opacity="0.8"/><rect x="104" y="136" width="18" height="68" rx="3" fill="#ff9cc8" stroke="#b0688a" stroke-width="3" stroke-linejoin="round" stroke-linecap="round"/><line x1="108" y1="148" x2="118" y2="148" stroke="#fff" stroke-width="3" opacity="0.8"/><rect x="124" y="148" width="14" height="56" rx="3" fill="#cbb8f2" stroke="#b0688a" stroke-width="3" stroke-linejoin="round" stroke-linecap="round"/><line x1="128" y1="160" x2="134" y2="160" stroke="#fff" stroke-width="3" opacity="0.8"/><rect x="140" y="136" width="20" height="68" rx="3" fill="#ffb3a3" stroke="#b0688a" stroke-width="3" stroke-linejoin="round" stroke-linecap="round"/><line x1="144" y1="148" x2="156" y2="148" stroke="#fff" stroke-width="3" opacity="0.8"/><rect x="162" y="148" width="16" height="56" rx="3" fill="#bfe8d6" stroke="#b0688a" stroke-width="3" stroke-linejoin="round" stroke-linecap="round"/><line x1="166" y1="160" x2="174" y2="160" stroke="#fff" stroke-width="3" opacity="0.8"/><rect x="30" y="228" width="20" height="68" rx="3" fill="#bfe1ff" stroke="#b0688a" stroke-width="3" stroke-linejoin="round" stroke-linecap="round"/><line x1="34" y1="240" x2="46" y2="240" stroke="#fff" stroke-width="3" opacity="0.8"/><rect x="52" y="234" width="18" height="62" rx="3" fill="#ff9cc8" stroke="#b0688a" stroke-width="3" stroke-linejoin="round" stroke-linecap="round"/><line x1="56" y1="246" x2="66" y2="246" stroke="#fff" stroke-width="3" opacity="0.8"/><rect x="72" y="234" width="14" height="62" rx="3" fill="#ffd76e" stroke="#b0688a" stroke-width="3" stroke-linejoin="round" stroke-linecap="round"/><line x1="76" y1="246" x2="82" y2="246" stroke="#fff" stroke-width="3" opacity="0.8"/><rect x="88" y="240" width="16" height="56" rx="3" fill="#bfe8d6" stroke="#b0688a" stroke-width="3" stroke-linejoin="round" stroke-linecap="round"/><line x1="92" y1="252" x2="100" y2="252" stroke="#fff" stroke-width="3" opacity="0.8"/><rect x="106" y="228" width="18" height="68" rx="3" fill="#cbb8f2" stroke="#b0688a" stroke-width="3" stroke-linejoin="round" stroke-linecap="round" transform="rotate(-14 124 296)"/><rect x="138" y="228" width="14" height="68" rx="3" fill="#cbb8f2" stroke="#b0688a" stroke-width="3" stroke-linejoin="round" stroke-linecap="round"/><line x1="142" y1="240" x2="148" y2="240" stroke="#fff" stroke-width="3" opacity="0.8"/><rect x="154" y="228" width="14" height="68" rx="3" fill="#bfe8d6" stroke="#b0688a" stroke-width="3" stroke-linejoin="round" stroke-linecap="round"/><line x1="158" y1="240" x2="164" y2="240" stroke="#fff" stroke-width="3" opacity="0.8"/>
<rect x="18" y="112" width="184" height="12" rx="5" fill="#f3cdb3" stroke="#b0688a" stroke-width="3" stroke-linejoin="round" stroke-linecap="round"/>
<rect x="18" y="204" width="184" height="12" rx="5" fill="#f3cdb3" stroke="#b0688a" stroke-width="3" stroke-linejoin="round" stroke-linecap="round"/>
<rect x="18" y="296" width="184" height="12" rx="5" fill="#f3cdb3" stroke="#b0688a" stroke-width="3" stroke-linejoin="round" stroke-linecap="round"/>
<path d="M20 20 H200" stroke="#fff" stroke-width="5" stroke-linecap="round" opacity="0.6"/>
</svg>
